<svg width="25" height="25" viewBox="0 0 25 25" fill="none" xmlns="http://www.w3.org/2000/svg">
<path d="M12.5 23.9584V1.04175H14.5833L18.2292 2.60425L21.3542 5.20841L22.9167 7.81258L23.9583 10.4167L24.4792 13.5417L23.4375 17.1876L21.3542 20.3126L18.2292 22.3959L16.1458 23.9584H12.5Z" fill="#F5D1C5"/>
<path d="M21.6463 20.9989C23.3058 19.2194 24.4089 16.9944 24.8203 14.5973C25.2316 12.2001 24.9333 9.73518 23.962 7.50505C22.9906 5.27492 21.3885 3.3767 19.3523 2.04346C17.3161 0.710223 14.9346 0 12.5 0C10.0654 0 7.68386 0.710223 5.64769 2.04346C3.61153 3.3767 2.00941 5.27492 1.03805 7.50505C0.066689 9.73518 -0.231625 12.2001 0.179734 14.5973C0.591092 16.9944 1.69422 19.2194 3.35366 20.9989V21.0416H3.39635C4.56039 22.2905 5.96945 23.2865 7.5357 23.9675C9.10194 24.6485 10.7918 25 12.5 25C14.2082 25 15.8981 24.6485 17.4643 23.9675C19.0306 23.2865 20.4396 22.2905 21.6037 21.0416H21.6463V20.9989ZM1.82927 12.5136C1.82781 10.8427 2.21958 9.1948 2.97296 7.70295C3.72634 6.21109 4.82024 4.91705 6.16637 3.92525C7.51251 2.93346 9.07319 2.27169 10.7225 1.99334C12.3717 1.71499 14.0634 1.82786 15.661 2.32285C17.2586 2.81783 18.7173 3.68107 19.9194 4.84289C21.1216 6.00471 22.0335 7.43259 22.5816 9.01128C23.1297 10.59 23.2986 12.2753 23.0747 13.9312C22.8508 15.5871 22.2404 17.1673 21.2927 18.5441C20.9016 17.1882 20.2032 15.9406 19.2515 14.8979C18.2998 13.8553 17.1204 13.0457 15.8049 12.5319C16.6249 11.8517 17.2151 10.9354 17.495 9.9079C17.7749 8.88041 17.7308 7.79172 17.3688 6.79016C17.0068 5.78859 16.3445 4.92288 15.4722 4.31099C14.5998 3.6991 13.5598 3.37078 12.4939 3.37078C11.428 3.37078 10.388 3.6991 9.51562 4.31099C8.64326 4.92288 7.98097 5.78859 7.61899 6.79016C7.25701 7.79172 7.21295 8.88041 7.49282 9.9079C7.77268 10.9354 8.36286 11.8517 9.18293 12.5319C7.86741 13.0457 6.68805 13.8553 5.73635 14.8979C4.78464 15.9406 4.08617 17.1882 3.69513 18.5441C2.4749 16.7697 1.82412 14.6664 1.82927 12.5136ZM9.14634 8.55425C9.14634 7.89163 9.34303 7.24389 9.71154 6.69294C10.08 6.14199 10.6038 5.71258 11.2166 5.45901C11.8294 5.20544 12.5037 5.13909 13.1543 5.26836C13.8048 5.39763 14.4024 5.71671 14.8714 6.18525C15.3404 6.6538 15.6598 7.25076 15.7892 7.90064C15.9186 8.55053 15.8522 9.22416 15.5984 9.83634C15.3445 10.4485 14.9147 10.9718 14.3632 11.3399C13.8117 11.708 13.1633 11.9045 12.5 11.9045C11.611 11.9029 10.759 11.5494 10.1304 10.9215C9.5018 10.2935 9.14795 9.4423 9.14634 8.55425ZM5.21952 20.2863C5.4007 18.4831 6.24593 16.8114 7.59122 15.5956C8.93651 14.3798 10.6859 13.7066 12.5 13.7066C14.3141 13.7066 16.0635 14.3798 17.4088 15.5956C18.7541 16.8114 19.5993 18.4831 19.7805 20.2863C17.8108 22.1405 15.2065 23.1732 12.5 23.1732C9.79352 23.1732 7.18923 22.1405 5.21952 20.2863Z" fill="#9E4122"/>
</svg>
