<svg width="42" height="31" viewBox="0 0 42 31" fill="none" xmlns="http://www.w3.org/2000/svg">
<path d="M4.3506 7.45442C4.69166 6.44998 5.62881 5.77523 6.68334 5.77523H15.3107V3.6167C15.3107 2.10036 16.544 0.866699 18.0607 0.866699H38.4365C39.9532 0.866699 41.1865 2.10036 41.1865 3.6167V23.527C41.1865 25.0397 39.9532 26.2706 38.4365 26.2706H36.158C35.8508 28.7323 33.7496 30.6445 31.2066 30.6445C28.663 30.6445 26.5618 28.7323 26.2546 26.2706C24.9702 26.2712 30.9074 26.2682 13.693 26.277C13.3829 28.7355 11.2834 30.6445 8.74261 30.6445C6.20128 30.6445 4.10168 28.7355 3.79157 26.277H3.36121C2.01109 26.277 0.91293 25.1789 0.91293 23.8291V18.2725C0.912937 17.6275 0.839916 18.2174 4.3506 7.45442ZM39.928 23.527V3.61671C39.928 2.79417 39.2587 2.12525 38.4365 2.12525H18.0607C17.2384 2.12525 16.5692 2.79417 16.5692 3.61671C16.5692 9.03401 16.5692 19.5899 16.5692 25.012H26.2571C26.5719 22.5587 28.6688 20.6551 31.2066 20.6551C33.7439 20.6551 35.8408 22.5587 36.1555 25.012H38.4365C39.2588 25.012 39.928 24.3459 39.928 23.527ZM31.2066 29.3859C33.2665 29.3859 34.9423 27.7098 34.9423 25.6496C34.9423 23.5894 33.2665 21.9136 31.2066 21.9136C29.1461 21.9136 27.4703 23.5894 27.4703 25.6496C27.4703 27.7098 29.1461 29.3859 31.2066 29.3859ZM8.74261 29.3859C10.8025 29.3859 12.4783 27.7098 12.4783 25.6496C12.4783 23.5894 10.8025 21.9136 8.74261 21.9136C6.68211 21.9136 5.00629 23.5894 5.00629 25.6496C5.00629 27.7098 6.68211 29.3859 8.74261 29.3859ZM2.17149 23.8291C2.17149 24.4848 2.7049 25.0185 3.36121 25.0185H3.79215C4.10398 22.562 6.20255 20.6551 8.74261 20.6551C11.2821 20.6551 13.3806 22.5621 13.6925 25.0185H15.3107V7.03378H6.68334C6.16837 7.03378 5.70992 7.36532 5.54462 7.85325C1.99001 18.6994 2.17149 17.9642 2.17149 18.2725V23.8291Z" fill="#9E4122" stroke="#9E4122" stroke-width="0.6"/>
<path d="M7.0361 9.35175C7.12152 9.09365 7.36241 8.91943 7.63403 8.91943H12.7911C13.139 8.91943 13.4204 9.20119 13.4204 9.54871V15.7339C13.4204 16.0814 13.139 16.3632 12.7911 16.3632H5.59565C5.39347 16.3632 5.2042 16.2664 5.08559 16.1026C4.9676 15.9392 4.93503 15.7287 4.99771 15.537L7.0361 9.35175ZM12.1619 15.1046V10.178H8.0894L6.46582 15.1046H12.1619Z" fill="#9E4122" stroke="#9E4122" stroke-width="0.6"/>
<path d="M19.6691 18.2537C19.3213 18.2537 19.0398 17.9719 19.0398 17.6244C19.0398 17.2769 19.3213 16.9951 19.6691 16.9951H20.0967C20.4041 12.9843 23.6096 9.7788 27.6204 9.47142V8.56384C27.6204 8.21633 27.9019 7.93457 28.2497 7.93457C28.5975 7.93457 28.879 8.21633 28.879 8.56384V9.47142C32.8898 9.7788 36.0947 12.9843 36.4021 16.9951H36.8297C37.1775 16.9951 37.459 17.2769 37.459 17.6244C37.459 17.9719 37.1775 18.2537 36.8297 18.2537C30.5345 18.2537 25.9177 18.2537 19.6691 18.2537ZM28.2497 10.6981C24.6424 10.6981 21.6706 13.4699 21.3516 16.9951H35.1471C34.8282 13.4699 31.8564 10.6981 28.2497 10.6981Z" fill="#9E4122" stroke="#9E4122" stroke-width="0.6"/>
</svg>
