<svg width="17" height="17" viewBox="0 0 17 17" fill="none" xmlns="http://www.w3.org/2000/svg">
<path d="M8.49696 6.2239C9.14896 6.2239 9.67752 5.69535 9.67752 5.04335C9.67752 4.39135 9.14896 3.86279 8.49696 3.86279C7.84496 3.86279 7.31641 4.39135 7.31641 5.04335C7.31641 5.69535 7.84496 6.2239 8.49696 6.2239Z" fill="#929292"/>
<path d="M9.48007 8.27788V12.169C9.48007 12.4295 9.37659 12.6793 9.19238 12.8635C9.00818 13.0477 8.75835 13.1512 8.49785 13.1512C8.23735 13.1512 7.98751 13.0477 7.80331 12.8635C7.61911 12.6793 7.51562 12.4295 7.51562 12.169V8.27788C7.51562 8.01737 7.61911 7.76754 7.80331 7.58334C7.98751 7.39914 8.23735 7.29565 8.49785 7.29565C8.75835 7.29565 9.00818 7.39914 9.19238 7.58334C9.37659 7.76754 9.48007 8.01737 9.48007 8.27788Z" fill="#929292"/>
<path d="M8.5 0C3.80573 0 0 3.80573 0 8.5C0 13.1943 3.80573 17 8.5 17C13.1943 17 17 13.1943 17 8.5C17 3.80573 13.1943 0 8.5 0ZM13.4417 13.4417C12.7948 14.0998 12.0239 14.6232 11.1736 14.9818C10.3233 15.3404 9.41046 15.527 8.48766 15.531C7.56486 15.5349 6.65042 15.356 5.7971 15.0047C4.94379 14.6534 4.1685 14.1365 3.51598 13.484C2.86345 12.8315 2.34661 12.0562 1.99529 11.2029C1.64396 10.3496 1.46511 9.43514 1.46904 8.51234C1.47297 7.58954 1.65962 6.67666 2.01821 5.82637C2.3768 4.97608 2.90023 4.20523 3.55829 3.55829C4.20523 2.90023 4.97608 2.3768 5.82637 2.01821C6.67666 1.65962 7.58954 1.47297 8.51234 1.46904C9.43514 1.46511 10.3496 1.64396 11.2029 1.99529C12.0562 2.34661 12.8315 2.86345 13.484 3.51598C14.1365 4.1685 14.6534 4.94379 15.0047 5.7971C15.356 6.65042 15.5349 7.56486 15.531 8.48766C15.527 9.41046 15.3404 10.3233 14.9818 11.1736C14.6232 12.0239 14.0998 12.7948 13.4417 13.4417Z" fill="#929292"/>
<path d="M8.5 0C3.80573 0 0 3.80573 0 8.5C0 13.1943 3.80573 17 8.5 17C13.1943 17 17 13.1943 17 8.5C17 3.80573 13.1943 0 8.5 0ZM13.4417 13.4417C12.7948 14.0998 12.0239 14.6232 11.1736 14.9818C10.3233 15.3404 9.41046 15.527 8.48766 15.531C7.56486 15.5349 6.65042 15.356 5.7971 15.0047C4.94379 14.6534 4.1685 14.1365 3.51598 13.484C2.86345 12.8315 2.34661 12.0562 1.99529 11.2029C1.64396 10.3496 1.46511 9.43514 1.46904 8.51234C1.47297 7.58954 1.65962 6.67666 2.01821 5.82637C2.3768 4.97608 2.90023 4.20523 3.55829 3.55829C4.20523 2.90023 4.97608 2.3768 5.82637 2.01821C6.67666 1.65962 7.58954 1.47297 8.51234 1.46904C9.43514 1.46511 10.3496 1.64396 11.2029 1.99529C12.0562 2.34661 12.8315 2.86345 13.484 3.51598C14.1365 4.1685 14.6534 4.94379 15.0047 5.7971C15.356 6.65042 15.5349 7.56486 15.531 8.48766C15.527 9.41046 15.3404 10.3233 14.9818 11.1736C14.6232 12.0239 14.0998 12.7948 13.4417 13.4417Z" fill="#929292"/>
</svg>
