<svg width="33" height="33" viewBox="0 0 33 33" fill="none" xmlns="http://www.w3.org/2000/svg">
<ellipse cx="16.1333" cy="16.5" rx="16.1333" ry="16.5" fill="#F2F2F2"/>
<path d="M16.2266 20.7167C16.0813 20.7167 15.9447 20.648 15.8585 20.5315C15.705 20.3248 12.1016 15.4353 12.1016 12.925C12.1016 10.6508 13.9523 8.80005 16.2266 8.80005C18.5013 8.80005 20.3516 10.6508 20.3516 12.925C20.3516 15.4353 16.7481 20.3248 16.5946 20.5315C16.5084 20.648 16.3719 20.7167 16.2266 20.7167ZM16.2266 9.71672C14.4574 9.71672 13.0182 11.1559 13.0182 12.925C13.0182 14.5636 15.0775 17.837 16.2266 19.4737C17.3756 17.8365 19.4349 14.5622 19.4349 12.925C19.4349 11.1559 17.9953 9.71672 16.2266 9.71672Z" fill="#6A6A6A"/>
<path d="M16.2279 14.7585C15.2168 14.7585 14.3945 13.9362 14.3945 12.9251C14.3945 11.914 15.2168 11.0918 16.2279 11.0918C17.2389 11.0918 18.0612 11.914 18.0612 12.9251C18.0612 13.9362 17.2389 14.7585 16.2279 14.7585ZM16.2279 12.0085C15.7223 12.0085 15.3112 12.4196 15.3112 12.9251C15.3112 13.4307 15.7223 13.8418 16.2279 13.8418C16.7334 13.8418 17.1445 13.4307 17.1445 12.9251C17.1445 12.4196 16.7334 12.0085 16.2279 12.0085Z" fill="#6A6A6A"/>
<path d="M16.2279 23.4669C13.3394 23.4669 10.2695 22.5722 10.2695 20.9135C10.2695 20.0908 11.0423 19.3785 12.4448 18.9074C12.6849 18.8281 12.9448 18.9559 13.025 19.1961C13.1057 19.4358 12.9764 19.6962 12.7367 19.7768C11.5923 20.1604 11.1862 20.6293 11.1862 20.9135C11.1862 21.5808 13.1502 22.5502 16.2279 22.5502C19.3056 22.5502 21.2695 21.5808 21.2695 20.9135C21.2695 20.6293 20.863 20.1604 19.7185 19.7764C19.4788 19.6952 19.3491 19.4358 19.4298 19.1957C19.5109 18.9559 19.7708 18.8272 20.0105 18.9069C21.4134 19.3785 22.1862 20.0912 22.1862 20.9135C22.1862 22.5722 19.1163 23.4669 16.2279 23.4669Z" fill="#6A6A6A"/>
</svg>
