<svg width="30" height="30" viewBox="0 0 30 30" fill="none" xmlns="http://www.w3.org/2000/svg">
<path d="M15.0035 4.07992e-07C12.0365 -0.000691446 9.13591 0.878543 6.66863 2.5265C4.20136 4.17445 2.27823 6.5171 1.14248 9.25813C0.00673513 11.9992 -0.29061 15.0155 0.288057 17.9255C0.866724 20.8355 2.29541 23.5086 4.3934 25.6066C6.4914 27.7046 9.16447 29.1333 12.0745 29.7119C14.9845 30.2906 18.0008 29.9933 20.7419 28.8575C23.4829 27.7218 25.8255 25.7986 27.4735 23.3314C29.1215 20.8641 30.0007 17.9635 30 14.9965C29.9954 11.0206 28.4139 7.20887 25.6025 4.39749C22.7911 1.5861 18.9794 0.00462947 15.0035 4.07992e-07ZM15.0035 27.8976C12.4518 27.8983 9.95711 27.1423 7.83507 25.7251C5.71303 24.3079 4.05892 22.2933 3.08193 19.936C2.10494 17.5787 1.84895 14.9846 2.34635 12.4818C2.84375 9.97896 4.07218 7.67987 5.8763 5.87527C7.68041 4.07067 9.97917 2.84161 12.4818 2.34353C14.9845 1.84545 17.5787 2.10073 19.9362 3.07709C22.2938 4.05344 24.3089 5.70701 25.7266 7.82866C27.1444 9.95031 27.9011 12.4448 27.9011 14.9965C27.8974 18.4163 26.5375 21.6951 24.1196 24.1136C21.7017 26.5322 18.4233 27.893 15.0035 27.8976Z" fill="#9E4122"/>
<path d="M15.3528 14.5872V5.92932C15.3528 5.65099 15.2422 5.38406 15.0454 5.18726C14.8486 4.99045 14.5817 4.87988 14.3033 4.87988C14.025 4.87988 13.7581 4.99045 13.5613 5.18726C13.3645 5.38406 13.2539 5.65099 13.2539 5.92932V14.9965C13.2564 15.2558 13.3549 15.5051 13.5303 15.6961L18.1758 20.7824C18.3686 20.9564 18.6192 21.0527 18.879 21.0527C19.1388 21.0527 19.3893 20.9563 19.5821 20.7822C19.7749 20.6081 19.8963 20.3686 19.9228 20.1102C19.9493 19.8518 19.879 19.5927 19.7255 19.3831L15.3528 14.5872Z" fill="#9E4122"/>
</svg>
