<svg width="37" height="32" viewBox="0 0 37 32" fill="none" xmlns="http://www.w3.org/2000/svg">
<path d="M36 16C36 24.2692 29.3802 31 21.239 31C18.2335 31 15.3423 30.0766 12.8695 28.3843C12.1847 27.8843 11.9945 26.9614 12.489 26.2306C12.9836 25.5383 13.8965 25.346 14.6193 25.846C16.5595 27.1922 18.8803 27.9231 21.239 27.9231C27.7063 27.9231 32.9565 22.5769 32.9565 16C32.9565 9.42308 27.7063 4.07692 21.239 4.07692C14.9238 4.07692 9.75038 9.19246 9.52213 15.5771L13.0597 11.9615C13.6684 11.3462 14.6199 11.3462 15.2286 11.9615C15.8373 12.5769 15.8373 13.5382 15.2286 14.1535L9.40769 20.0385C9.10335 20.3462 8.72261 20.4997 8.34218 20.4997C7.9237 20.4997 7.54373 20.3462 7.27743 20.0385L1.45652 14.1152C0.847827 13.4998 0.847827 12.5386 1.45652 11.9232C2.06521 11.3078 3.01673 11.3078 3.62542 11.9232L6.51656 14.8845C7.04917 7.15369 13.4401 1 21.239 1C29.3802 1 36 7.73077 36 16ZM21.1632 7.26877C20.3262 7.26877 19.6414 7.96108 19.6414 8.80723V16C19.6414 16.4231 19.8312 16.8072 20.1356 17.0765L23.4079 20.3848C23.7122 20.6925 24.092 20.846 24.5105 20.846C24.8909 20.846 25.3097 20.6925 25.576 20.3848C26.1847 19.7694 26.1468 18.8074 25.5381 18.192L22.6849 15.3457V8.80723C22.6849 7.96108 22.0001 7.26877 21.1632 7.26877Z" fill="#9E4122" stroke="white"/>
</svg>
