<svg width="30" height="35" viewBox="0 0 30 35" fill="none" xmlns="http://www.w3.org/2000/svg">
<path d="M13.1022 17.4998H12.5522V15.2998H11.4522V17.4998H10.9022V15.2998H9.80225V19.6998C9.80294 20.0701 9.89731 20.4343 10.0766 20.7584C10.2558 21.0824 10.5141 21.3559 10.8274 21.5533L10.3522 26.8003C10.3454 26.8766 10.3545 26.9535 10.379 27.026C10.4035 27.0986 10.443 27.1652 10.4947 27.2216C10.5465 27.2781 10.6095 27.3231 10.6797 27.3537C10.7499 27.3844 10.8257 27.4001 10.9022 27.3998H13.1022C13.1788 27.4001 13.2546 27.3844 13.3248 27.3537C13.395 27.3231 13.458 27.2781 13.5098 27.2216C13.5615 27.1652 13.601 27.0986 13.6255 27.026C13.65 26.9535 13.6591 26.8766 13.6522 26.8003L13.1792 21.5533C13.4922 21.3556 13.75 21.0821 13.9289 20.758C14.1078 20.4339 14.2018 20.0699 14.2022 19.6998V15.2998H13.1022V17.4998ZM13.1022 19.6998C13.1022 19.9915 12.9864 20.2713 12.7801 20.4776C12.5738 20.6839 12.294 20.7998 12.0022 20.7998C11.7105 20.7998 11.4307 20.6839 11.2244 20.4776C11.0181 20.2713 10.9022 19.9915 10.9022 19.6998V18.5998H13.1022V19.6998ZM12.5005 26.2998H11.5039L11.9016 21.8894C11.9357 21.8894 11.9676 21.8998 12.0022 21.8998C12.0369 21.8998 12.0688 21.891 12.1029 21.8894L12.5005 26.2998Z" fill="#9E4122" stroke="#9E4122" stroke-width="0.3"/>
<path d="M20.2523 15.2998C19.2317 15.3011 18.2532 15.7072 17.5314 16.4289C16.8097 17.1506 16.4037 18.1291 16.4023 19.1498V21.3498C16.4024 21.4652 16.4388 21.5776 16.5063 21.6712C16.5738 21.7648 16.6691 21.8347 16.7785 21.8712L18.0067 22.281L17.5056 26.791C17.4974 26.8677 17.5054 26.9453 17.5291 27.0188C17.5528 27.0922 17.5917 27.1598 17.6433 27.2173C17.6948 27.2747 17.7579 27.3206 17.8284 27.3521C17.8989 27.3835 17.9752 27.3998 18.0523 27.3998H20.2523C20.3982 27.3998 20.5381 27.3419 20.6413 27.2387C20.7444 27.1356 20.8023 26.9957 20.8023 26.8498V15.8498C20.8023 15.7039 20.7444 15.564 20.6413 15.4609C20.5381 15.3578 20.3982 15.2998 20.2523 15.2998ZM18.6667 26.2998L19.0737 22.6368L19.7023 22.8458V26.2998H18.6667ZM19.7023 21.6864L17.5023 20.9533V19.1498C17.503 18.5161 17.7223 17.902 18.123 17.411C18.5238 16.9201 19.0816 16.5824 19.7023 16.4548V21.6859V21.6864Z" fill="#9E4122" stroke="#9E4122" stroke-width="0.3"/>
<path d="M15.3023 10.8999C13.3443 10.8999 11.4302 11.4805 9.8022 12.5684C8.17416 13.6562 6.90525 15.2023 6.15594 17.0113C5.40663 18.8203 5.21058 20.8109 5.59257 22.7313C5.97457 24.6517 6.91745 26.4157 8.30199 27.8003C9.68653 29.1848 11.4505 30.1277 13.371 30.5097C15.2914 30.8917 17.2819 30.6956 19.0909 29.9463C20.8999 29.197 22.4461 27.9281 23.5339 26.3C24.6217 24.672 25.2024 22.7579 25.2024 20.7999C25.1993 18.1752 24.1553 15.6589 22.2993 13.8029C20.4434 11.947 17.9271 10.903 15.3023 10.8999ZM15.3023 29.5999C13.5619 29.5999 11.8605 29.0838 10.4133 28.1168C8.96618 27.1499 7.83826 25.7755 7.17221 24.1675C6.50616 22.5595 6.33189 20.7901 6.67144 19.0831C7.01099 17.3761 7.84911 15.8081 9.07981 14.5774C10.3105 13.3467 11.8785 12.5085 13.5856 12.169C15.2926 11.8294 17.062 12.0037 18.67 12.6698C20.278 13.3358 21.6523 14.4637 22.6193 15.9109C23.5862 17.358 24.1024 19.0594 24.1024 20.7999C24.0996 23.133 23.1716 25.3697 21.5218 27.0194C19.8721 28.6691 17.6354 29.5971 15.3023 29.5999Z" fill="#9E4122" stroke="#9E4122" stroke-width="0.3"/>
<path d="M27.9575 28.434L29.602 9.294C29.6085 9.21807 29.5991 9.14162 29.5744 9.06954C29.5496 8.99746 29.5101 8.93134 29.4583 8.87542C29.4065 8.81951 29.3436 8.77502 29.2737 8.74481C29.2037 8.7146 29.1282 8.69934 29.052 8.7H24.652V4.85C24.6509 4.70419 24.5938 4.56438 24.4925 4.4595L21.1925 1.1595C21.0876 1.05819 20.9478 1.00109 20.802 1H9.802C9.65619 1.00109 9.51638 1.05819 9.4115 1.1595L6.1115 4.4595C6.0102 4.56438 5.95309 4.70419 5.952 4.85V8.7H1.552C1.4758 8.69934 1.40029 8.7146 1.33033 8.74481C1.26036 8.77502 1.19748 8.81951 1.1457 8.87542C1.09392 8.93134 1.0544 8.99746 1.02965 9.06954C1.00491 9.14162 0.995489 9.21807 1.002 9.294L2.6465 28.434L1.0295 33.274C1.00223 33.3567 0.994987 33.4447 1.00837 33.5308C1.02176 33.6168 1.05539 33.6985 1.1065 33.769C1.15656 33.8407 1.22324 33.8991 1.30083 33.9393C1.37842 33.9796 1.4646 34.0004 1.552 34H29.052C29.1394 34.0004 29.2256 33.9796 29.3032 33.9393C29.3808 33.8991 29.4475 33.8407 29.4975 33.769C29.5486 33.6985 29.5822 33.6168 29.5956 33.5308C29.609 33.4447 29.6018 33.3567 29.5745 33.274L27.9575 28.434ZM10.0275 2.1H20.5765L22.7765 4.3H7.8275L10.0275 2.1ZM23.552 5.4V8.7H21.352V5.4H23.552ZM20.252 5.4V8.7H10.352V5.4H20.252ZM7.052 5.4H9.252V8.7H7.052V5.4ZM2.3165 32.9L3.7245 28.676C3.74714 28.605 3.75647 28.5304 3.752 28.456L2.1515 9.8H28.4525L26.852 28.456C26.8475 28.5304 26.8569 28.605 26.8795 28.676L28.2875 32.9H2.3165Z" fill="#9E4122" stroke="#9E4122" stroke-width="0.3"/>
</svg>
