<svg width="20" height="15" viewBox="0 0 20 15" fill="none" xmlns="http://www.w3.org/2000/svg">
<path d="M13.4155 3.69549C14.7328 5.01273 15.2191 6.85686 14.8746 8.5794L14.5909 8.29569C14.1856 7.89039 13.4966 7.89039 13.0913 8.29569C12.686 8.70099 12.686 9.39001 13.0913 9.79531L15.2799 11.9637C15.6852 12.369 16.3743 12.369 16.7796 11.9637L18.9479 9.79531C19.3532 9.39001 19.3532 8.70099 18.9479 8.29569C18.5426 7.89039 17.8536 7.89039 17.4483 8.29569L17.043 8.70099C17.4078 6.41103 16.7188 3.95894 14.9354 2.19587C12.8076 0.0680242 9.72727 -0.499401 7.0928 0.432798C6.36325 0.696245 6.1606 1.62844 6.70776 2.1756C6.99147 2.45932 7.43731 2.56064 7.82235 2.41879C9.70701 1.7703 11.9159 2.19587 13.4155 3.69549Z" fill="#9E4122"/>
<path d="M12.1794 14.5578C12.9089 14.2943 13.1116 13.3621 12.5644 12.815C12.2604 12.5312 11.8349 12.4299 11.4498 12.5718C9.5449 13.2405 7.35626 12.815 5.83637 11.3153C4.51914 9.9981 4.03277 8.15397 4.37728 6.43143L4.66099 6.71514C5.0663 7.12044 5.75531 7.12044 6.16062 6.71514C6.56592 6.30984 6.56592 5.62082 6.16062 5.21552L3.97198 3.04714C3.56667 2.64184 2.87766 2.64184 2.47235 3.04714L0.303978 5.21552C-0.101326 5.62082 -0.101326 6.30984 0.303978 6.71514C0.709281 7.12044 1.3983 7.12044 1.8036 6.71514L2.2089 6.30984C1.84413 8.5998 2.53315 11.0519 4.31648 12.815C6.44433 14.9225 9.52464 15.5102 12.1794 14.5578Z" fill="#9E4122"/>
</svg>
