<svg width="30" height="23" viewBox="0 0 30 23" fill="none" xmlns="http://www.w3.org/2000/svg">
<path d="M21.3788 0H2.31819C1.03994 0 0 1.03994 0 2.31819V14.6818C0 15.9601 1.03994 17 2.31819 17H21.3788C22.6571 17 23.697 15.9601 23.697 14.6818V2.31819C23.697 1.03994 22.6571 0 21.3788 0ZM22.1516 14.6818C22.1516 15.1079 21.8049 15.4546 21.3788 15.4546H2.31819C1.8921 15.4546 1.54544 15.1079 1.54544 14.6818V7.72726H22.1515V14.6818H22.1516ZM22.1516 6.18181H1.54544V4.63637H22.1515V6.18181H22.1516ZM22.1516 3.09088H1.54544V2.31814C1.54544 1.89206 1.8921 1.5454 2.31819 1.5454H21.3788C21.8049 1.5454 22.1516 1.89206 22.1516 2.31814V3.09088Z" fill="#9E4122"/>
<path d="M10.0444 9.27271H3.86259C3.43586 9.27271 3.08984 9.61867 3.08984 10.0454V13.1364C3.08984 13.5631 3.43581 13.9091 3.86259 13.9091H10.0444C10.4711 13.9091 10.8171 13.5632 10.8171 13.1364V10.0454C10.8171 9.61867 10.4712 9.27271 10.0444 9.27271ZM9.2717 12.3636H4.63533V10.8181H9.2717V12.3636Z" fill="#9E4122"/>
<circle cx="22.5013" cy="15.5001" r="5.95833" fill="#FFF6F3"/>
<path d="M22.6 8.90076V8.9H22.5C21.1946 8.9 19.9186 9.28708 18.8332 10.0123C17.7479 10.7375 16.9019 11.7683 16.4024 12.9743C15.9029 14.1803 15.7722 15.5073 16.0268 16.7876C16.2815 18.0679 16.9101 19.2439 17.8331 20.1669C18.7561 21.0899 19.9321 21.7185 21.2124 21.9732C22.4927 22.2278 23.8197 22.0971 25.0257 21.5976C26.2317 21.0981 27.2625 20.2521 27.9877 19.1668C28.7129 18.0814 29.1 16.8054 29.1 15.5C29.1 13.7496 28.4046 12.0708 27.1669 10.8331C25.9528 9.61894 24.3143 8.9267 22.6 8.90076ZM22.5 20.8167C21.4485 20.8167 20.4205 20.5048 19.5462 19.9206C18.6719 19.3364 17.9904 18.5061 17.588 17.5346C17.1856 16.5631 17.0803 15.4941 17.2855 14.4628C17.4906 13.4314 17.997 12.4841 18.7406 11.7405C19.4841 10.997 20.4314 10.4906 21.4628 10.2855C22.4941 10.0803 23.5631 10.1856 24.5346 10.588C25.5061 10.9904 26.3364 11.6719 26.9206 12.5462C27.5049 13.4205 27.8167 14.4485 27.8167 15.5C27.8167 16.9101 27.2565 18.2624 26.2595 19.2594C25.2624 20.2565 23.9101 20.8167 22.5 20.8167Z" fill="#9E4122" stroke="#9E4122" stroke-width="0.2"/>
<path d="M23.0442 12V11.85H22.8942H22H21.85V12V15.6805V15.7435L21.895 15.7876L24.2601 18.1071L24.365 18.21L24.4701 18.1072L25.1049 17.4858L25.2144 17.3786L25.1049 17.2714L23.0442 15.2542V12Z" fill="#9E4122" stroke="#9E4122" stroke-width="0.3"/>
</svg>
