<svg width="24" height="24" viewBox="0 0 24 24" fill="none" xmlns="http://www.w3.org/2000/svg">
<path fill-rule="evenodd" clip-rule="evenodd" d="M13.2 2.4C17.8392 2.4 21.6 6.16081 21.6 10.8C21.6 15.4392 17.8392 19.2 13.2 19.2C8.56081 19.2 4.8 15.4392 4.8 10.8C4.8 6.16081 8.56081 2.4 13.2 2.4ZM24 10.8C24 4.83532 19.1647 0 13.2 0C7.23532 0 2.4 4.83532 2.4 10.8C2.4 16.7647 7.23532 21.6 13.2 21.6C19.1647 21.6 24 16.7647 24 10.8Z" fill="#9E4122"/>
<path fill-rule="evenodd" clip-rule="evenodd" d="M7.26853 16.7315C6.7999 16.2628 6.0401 16.2628 5.57147 16.7315L0.351471 21.9515C-0.117159 22.4201 -0.117159 23.1799 0.351471 23.6485C0.820099 24.1172 1.5799 24.1172 2.04853 23.6485L7.26853 18.4285C7.73716 17.9599 7.73716 17.2001 7.26853 16.7315Z" fill="#9E4122"/>
</svg>
