<svg width="21" height="16" viewBox="0 0 21 16" fill="none" xmlns="http://www.w3.org/2000/svg">
<path d="M20.6169 0.119618C20.4998 0.0478649 20.3661 0.0069678 20.2286 0.000814442C20.091 -0.00533892 19.9542 0.0234562 19.8311 0.0844619L13.7308 3.10573L7.63048 0.0844619C7.62388 0.0811899 7.61658 0.0801897 7.60989 0.0771137C7.57097 0.0595941 7.53069 0.0451843 7.48945 0.034022C7.47422 0.029726 7.45983 0.023522 7.44425 0.020106C7.32911 -0.00658645 7.20931 -0.00658645 7.09418 0.020106C7.07863 0.023522 7.0643 0.0297059 7.04913 0.0339739C7.00783 0.045156 6.9675 0.0595817 6.92852 0.0771137C6.92184 0.0801897 6.91457 0.0811899 6.90796 0.0844619L0.446424 3.28444C0.312293 3.35094 0.199494 3.4531 0.120651 3.57949C0.0418075 3.70587 3.20319e-05 3.8515 0 4.00006V15.2C2.90729e-05 15.3364 0.0352404 15.4705 0.102292 15.5896C0.169344 15.7086 0.266011 15.8088 0.383119 15.8805C0.500227 15.9522 0.63389 15.993 0.771422 15.9992C0.908953 16.0053 1.04579 15.9766 1.16894 15.9156L7.26923 12.8944L13.3695 15.9156C13.3761 15.9189 13.3834 15.9199 13.3901 15.923C13.4291 15.9405 13.4694 15.9549 13.5107 15.9661C13.5259 15.9704 13.5402 15.9766 13.5557 15.98C13.6709 16.0067 13.7907 16.0067 13.9058 15.98C13.9214 15.9766 13.9358 15.9704 13.951 15.9661C13.9922 15.9549 14.0325 15.9405 14.0714 15.923C14.0781 15.9199 14.0854 15.9189 14.092 15.9156L20.5536 12.7156C20.6877 12.6491 20.8005 12.547 20.8793 12.4206C20.9582 12.2942 21 12.1486 21 12V0.800082C21 0.663712 20.9648 0.529602 20.8978 0.410501C20.8307 0.2914 20.734 0.191266 20.6169 0.119618ZM6.46154 11.5055L1.61538 13.9057V4.4944L6.46154 2.09441V11.5055ZM12.9231 13.9057L8.07692 11.5055V2.09444L12.9231 4.49457V13.9057ZM19.3846 11.5057L14.5385 13.9057V4.49457L19.3846 2.09441V11.5057Z" fill="#9E4122"/>
</svg>
