<svg width="16" height="15" viewBox="0 0 16 15" fill="none" xmlns="http://www.w3.org/2000/svg">
<path d="M13.6 1.66667H12.8V0.833333C12.8 0.61232 12.7157 0.400358 12.5657 0.244078C12.4157 0.0877973 12.2122 0 12 0C11.7878 0 11.5843 0.0877973 11.4343 0.244078C11.2843 0.400358 11.2 0.61232 11.2 0.833333V1.66667H4.8V0.833333C4.8 0.61232 4.71571 0.400358 4.56569 0.244078C4.41566 0.0877973 4.21217 0 4 0C3.78783 0 3.58434 0.0877973 3.43431 0.244078C3.28429 0.400358 3.2 0.61232 3.2 0.833333V1.66667H2.4C1.76348 1.66667 1.15303 1.93006 0.702944 2.3989C0.252856 2.86774 0 3.50363 0 4.16667V12.5C0 13.163 0.252856 13.7989 0.702944 14.2678C1.15303 14.7366 1.76348 15 2.4 15H13.6C14.2365 15 14.847 14.7366 15.2971 14.2678C15.7471 13.7989 16 13.163 16 12.5V4.16667C16 3.50363 15.7471 2.86774 15.2971 2.3989C14.847 1.93006 14.2365 1.66667 13.6 1.66667ZM2.4 3.33333H3.2V4.16667C3.2 4.38768 3.28429 4.59964 3.43431 4.75592C3.58434 4.9122 3.78783 5 4 5C4.21217 5 4.41566 4.9122 4.56569 4.75592C4.71571 4.59964 4.8 4.38768 4.8 4.16667V3.33333H11.2V4.16667C11.2 4.38768 11.2843 4.59964 11.4343 4.75592C11.5843 4.9122 11.7878 5 12 5C12.2122 5 12.4157 4.9122 12.5657 4.75592C12.7157 4.59964 12.8 4.38768 12.8 4.16667V3.33333H13.6C13.8122 3.33333 14.0157 3.42113 14.1657 3.57741C14.3157 3.73369 14.4 3.94565 14.4 4.16667V5.83333H1.6V4.16667C1.6 3.94565 1.68429 3.73369 1.83431 3.57741C1.98434 3.42113 2.18783 3.33333 2.4 3.33333ZM13.6 13.3333H2.4C2.18783 13.3333 1.98434 13.2455 1.83431 13.0893C1.68429 12.933 1.6 12.721 1.6 12.5V7.5H14.4V12.5C14.4 12.721 14.3157 12.933 14.1657 13.0893C14.0157 13.2455 13.8122 13.3333 13.6 13.3333Z" fill="#343434"/>
</svg>
