<svg width="24" height="22" viewBox="0 0 24 22" fill="none" xmlns="http://www.w3.org/2000/svg">
<path d="M19.7 3.22222H18.6V2.11111C18.6 1.81643 18.4841 1.53381 18.2778 1.32544C18.0715 1.11706 17.7917 1 17.5 1C17.2083 1 16.9285 1.11706 16.7222 1.32544C16.5159 1.53381 16.4 1.81643 16.4 2.11111V3.22222H7.6V2.11111C7.6 1.81643 7.48411 1.53381 7.27782 1.32544C7.07153 1.11706 6.79174 1 6.5 1C6.20826 1 5.92847 1.11706 5.72218 1.32544C5.51589 1.53381 5.4 1.81643 5.4 2.11111V3.22222H4.3C3.42479 3.22222 2.58542 3.57341 1.96655 4.19853C1.34768 4.82365 1 5.6715 1 6.55556V17.6667C1 18.5507 1.34768 19.3986 1.96655 20.0237C2.58542 20.6488 3.42479 21 4.3 21H19.7C20.5752 21 21.4146 20.6488 22.0335 20.0237C22.6523 19.3986 23 18.5507 23 17.6667V6.55556C23 5.6715 22.6523 4.82365 22.0335 4.19853C21.4146 3.57341 20.5752 3.22222 19.7 3.22222ZM4.3 5.44444H5.4V6.55556C5.4 6.85024 5.51589 7.13286 5.72218 7.34123C5.92847 7.5496 6.20826 7.66667 6.5 7.66667C6.79174 7.66667 7.07153 7.5496 7.27782 7.34123C7.48411 7.13286 7.6 6.85024 7.6 6.55556V5.44444H16.4V6.55556C16.4 6.85024 16.5159 7.13286 16.7222 7.34123C16.9285 7.5496 17.2083 7.66667 17.5 7.66667C17.7917 7.66667 18.0715 7.5496 18.2778 7.34123C18.4841 7.13286 18.6 6.85024 18.6 6.55556V5.44444H19.7C19.9917 5.44444 20.2715 5.56151 20.4778 5.76988C20.6841 5.97826 20.8 6.26087 20.8 6.55556V8.77778H3.2V6.55556C3.2 6.26087 3.31589 5.97826 3.52218 5.76988C3.72847 5.56151 4.00826 5.44444 4.3 5.44444ZM19.7 18.7778H4.3C4.00826 18.7778 3.72847 18.6607 3.52218 18.4523C3.31589 18.244 3.2 17.9614 3.2 17.6667V11H20.8V17.6667C20.8 17.9614 20.6841 18.244 20.4778 18.4523C20.2715 18.6607 19.9917 18.7778 19.7 18.7778Z" fill="#929292" stroke="#FAFAFA" stroke-width="0.2"/>
</svg>
