<svg width="25" height="18" viewBox="0 0 25 18" fill="none" xmlns="http://www.w3.org/2000/svg">
<path d="M23.1062 18H1.24067C0.558041 18 0.00390625 17.4459 0.00390625 16.7632V1.23676C0.00390625 0.554134 0.558041 0 1.24067 0H23.1089C23.7915 0 24.3457 0.554134 24.3457 1.23676V16.7632C24.3457 17.4459 23.7889 18 23.1062 18ZM1.60742 16.3938H22.7368V1.60619H1.60742V16.3938Z" fill="#929292"/>
<path d="M24.3444 8.50472H0V3.26855H24.3418V8.50472H24.3444ZM1.60619 6.89854H22.7356V4.87206H1.60619V6.89854Z" fill="#929292"/>
<path d="M18.6902 15.2158C18.1601 15.2158 17.6462 15.0659 17.2018 14.7902C16.7601 15.0659 16.2434 15.2158 15.7134 15.2158C14.1581 15.2158 12.8945 13.9523 12.8945 12.397C12.8945 10.8417 14.1607 9.57544 15.7161 9.57544C16.2461 9.57544 16.7601 9.72535 17.2045 10.0011C17.6462 9.72535 18.1628 9.57544 18.6929 9.57544C20.2482 9.57544 21.5144 10.8417 21.5144 12.397C21.509 13.9523 20.2455 15.2158 18.6902 15.2158ZM17.2018 12.571L17.7934 13.2161C18.0263 13.4704 18.3449 13.6096 18.6875 13.6096C19.3568 13.6096 19.9029 13.0635 19.9029 12.3943C19.9029 11.7251 19.3594 11.1789 18.6875 11.1789C18.3422 11.1789 18.0236 11.3182 17.7934 11.5725L17.2018 12.2176L16.6102 11.5725C16.3773 11.3182 16.0587 11.1789 15.7134 11.1789C15.0441 11.1789 14.498 11.7251 14.498 12.3943C14.498 13.0635 15.0415 13.6096 15.7134 13.6096C16.0587 13.6096 16.3773 13.4704 16.6102 13.2161L17.2018 12.571Z" fill="#929292"/>
<path d="M9.31191 11.594H3.63672V13.2002H9.31191V11.594Z" fill="#929292"/>
</svg>
