<svg width="22" height="24" viewBox="0 0 22 24" fill="none" xmlns="http://www.w3.org/2000/svg">
<path d="M20.5 4H6L5.5 4.5L8 12H17L20.5 4Z" fill="#F5D1C5"/>
<path d="M3.27484 7.46913e-10H0.992376C0.729182 7.46913e-10 0.476767 0.104554 0.29066 0.29066C0.104554 0.476767 0 0.729182 0 0.992376C0 1.25557 0.104554 1.50799 0.29066 1.69409C0.476767 1.8802 0.729182 1.98475 0.992376 1.98475H3.27484L6.53728 10.9583C5.80783 11.0807 5.15004 11.4702 4.69205 12.0509C4.23405 12.6317 4.00865 13.3622 4.05974 14.1001C4.11083 14.8379 4.43476 15.5304 4.96842 16.0425C5.50209 16.5546 6.20728 16.8497 6.94663 16.8704H18.8551C19.1183 16.8704 19.3708 16.7658 19.5569 16.5797C19.743 16.3936 19.8475 16.1412 19.8475 15.878C19.8475 15.6148 19.743 15.3624 19.5569 15.1763C19.3708 14.9902 19.1183 14.8856 18.8551 14.8856H6.94663C6.68344 14.8856 6.43102 14.7811 6.24492 14.595C6.05881 14.4089 5.95426 14.1565 5.95426 13.8933C5.95426 13.6301 6.05881 13.3777 6.24492 13.1915C6.43102 13.0054 6.68344 12.9009 6.94663 12.9009H15.682C16.5238 12.8983 17.3449 12.6403 18.0368 12.1609C18.7288 11.6816 19.2589 11.0036 19.5573 10.2165L21.7703 4.31684C21.8264 4.16666 21.8453 4.00513 21.8253 3.84607C21.8054 3.687 21.7472 3.53513 21.6558 3.40346C21.5643 3.27178 21.4423 3.16422 21.3002 3.08997C21.1582 3.01573 21.0002 2.97701 20.8399 2.97713H5.95426C5.88761 2.97734 5.82115 2.98398 5.75578 2.99698L5.14051 1.30746C5.00142 0.924326 4.74774 0.593309 4.41395 0.359389C4.08016 0.125469 3.68244 -1.11785e-05 3.27484 7.46913e-10ZM19.401 4.96188L17.699 9.51937C17.5441 9.92923 17.2682 10.2823 16.908 10.5318C16.5477 10.7812 16.1202 10.9153 15.682 10.9161H8.63367L6.46781 4.96188H19.401Z" fill="#9E4122"/>
<path d="M4.96191 20.8399C4.96191 21.4287 5.13652 22.0043 5.46365 22.4939C5.79078 22.9835 6.25575 23.3651 6.79974 23.5904C7.34374 23.8158 7.94234 23.8747 8.51985 23.7598C9.09736 23.645 9.62783 23.3614 10.0442 22.9451C10.4605 22.5287 10.7441 21.9982 10.859 21.4207C10.9738 20.8432 10.9149 20.2446 10.6896 19.7006C10.4642 19.1566 10.0826 18.6917 9.59305 18.3645C9.10346 18.0374 8.52786 17.8628 7.93904 17.8628C7.14946 17.8628 6.39221 18.1765 5.83389 18.7348C5.27558 19.2931 4.96191 20.0503 4.96191 20.8399ZM8.93142 20.8399C8.93142 21.0362 8.87322 21.2281 8.76417 21.3913C8.65513 21.5545 8.50014 21.6816 8.31881 21.7568C8.13748 21.8319 7.93794 21.8515 7.74544 21.8132C7.55294 21.7749 7.37611 21.6804 7.23733 21.5416C7.09854 21.4029 7.00403 21.226 6.96573 21.0335C6.92744 20.841 6.9471 20.6415 7.02221 20.4602C7.09732 20.2788 7.22451 20.1238 7.38771 20.0148C7.5509 19.9057 7.74277 19.8475 7.93904 19.8475C8.20224 19.8475 8.45465 19.9521 8.64076 20.1382C8.82686 20.3243 8.93142 20.5767 8.93142 20.8399Z" fill="#9E4122"/>
<path d="M16.8717 17.8628C16.2828 17.8628 15.7072 18.0374 15.2177 18.3645C14.7281 18.6917 14.3465 19.1566 14.1212 19.7006C13.8958 20.2446 13.8369 20.8432 13.9517 21.4207C14.0666 21.9982 14.3502 22.5287 14.7665 22.9451C15.1829 23.3614 15.7133 23.645 16.2909 23.7598C16.8684 23.8747 17.467 23.8158 18.011 23.5904C18.555 23.3651 19.0199 22.9835 19.3471 22.4939C19.6742 22.0043 19.8488 21.4287 19.8488 20.8399C19.8488 20.0503 19.5351 19.2931 18.9768 18.7348C18.4185 18.1765 17.6612 17.8628 16.8717 17.8628ZM16.8717 21.8323C16.6754 21.8323 16.4835 21.7741 16.3203 21.6651C16.1571 21.556 16.0299 21.401 15.9548 21.2197C15.8797 21.0384 15.8601 20.8388 15.8984 20.6463C15.9366 20.4538 16.0312 20.277 16.1699 20.1382C16.3087 19.9994 16.4856 19.9049 16.6781 19.8666C16.8706 19.8283 17.0701 19.848 17.2514 19.9231C17.4328 19.9982 17.5877 20.1254 17.6968 20.2886C17.8058 20.4518 17.864 20.6436 17.864 20.8399C17.864 21.1031 17.7595 21.3555 17.5734 21.5416C17.3873 21.7277 17.1349 21.8323 16.8717 21.8323Z" fill="#9E4122"/>
</svg>
