<svg width="22" height="17" viewBox="0 0 22 17" fill="none" xmlns="http://www.w3.org/2000/svg">
<path d="M3.27484 7.46913e-10H0.992376C0.729182 7.46913e-10 0.476767 0.104554 0.29066 0.29066C0.104554 0.476767 0 0.729182 0 0.992376C0 1.25557 0.104554 1.50799 0.29066 1.69409C0.476767 1.8802 0.729182 1.98475 0.992376 1.98475H3.27484L6.53728 10.9583C5.80783 11.0807 5.15004 11.4702 4.69205 12.0509C4.23405 12.6317 4.00865 13.3622 4.05974 14.1001C4.11083 14.8379 4.43476 15.5304 4.96842 16.0425C5.50209 16.5546 6.20728 16.8497 6.94663 16.8704H18.8551C19.1183 16.8704 19.3708 16.7658 19.5569 16.5797C19.743 16.3936 19.8475 16.1412 19.8475 15.878C19.8475 15.6148 19.743 15.3624 19.5569 15.1763C19.3708 14.9902 19.1183 14.8856 18.8551 14.8856H6.94663C6.68344 14.8856 6.43102 14.7811 6.24492 14.595C6.05881 14.4089 5.95426 14.1565 5.95426 13.8933C5.95426 13.6301 6.05881 13.3777 6.24492 13.1915C6.43102 13.0054 6.68344 12.9009 6.94663 12.9009H15.682C16.5238 12.8983 17.3449 12.6403 18.0368 12.1609C18.7288 11.6816 19.2589 11.0036 19.5573 10.2165L21.7703 4.31684C21.8264 4.16666 21.8453 4.00513 21.8253 3.84607C21.8054 3.687 21.7472 3.53513 21.6558 3.40346C21.5643 3.27178 21.4423 3.16422 21.3002 3.08997C21.1582 3.01573 21.0002 2.97701 20.8399 2.97713H5.95426C5.88761 2.97734 5.82115 2.98398 5.75578 2.99698L5.14051 1.30746C5.00142 0.924326 4.74774 0.593309 4.41395 0.359389C4.08016 0.125469 3.68244 -1.11785e-05 3.27484 7.46913e-10ZM19.401 4.96188L17.699 9.51937C17.5441 9.92923 17.2682 10.2823 16.908 10.5318C16.5477 10.7812 16.1202 10.9153 15.682 10.9161H8.63367L6.46781 4.96188H19.401Z" fill="white"/>
</svg>
