<svg width="33" height="33" viewBox="0 0 33 33" fill="none" xmlns="http://www.w3.org/2000/svg">
<ellipse cx="16.0976" cy="16.5" rx="16.0976" ry="16.5" fill="#F2F2F2"/>
<path d="M7.55957 12.0447C7.72755 11.55 8.18914 11.2177 8.70853 11.2177H12.9578V10.1545C12.9578 9.40767 13.5653 8.80005 14.3123 8.80005H24.3482C25.0952 8.80005 25.7026 9.40767 25.7026 10.1545V19.9611C25.7026 20.7062 25.0952 21.3124 24.3482 21.3124H23.2259C23.0746 22.5249 22.0397 23.4667 20.7872 23.4667C19.5343 23.4667 18.4994 22.5249 18.3481 21.3124C17.7155 21.3127 20.6398 21.3112 12.1611 21.3156C12.0083 22.5265 10.9742 23.4667 9.7228 23.4667C8.4711 23.4667 7.43697 22.5265 7.28423 21.3156H7.07226C6.40727 21.3156 5.86639 20.7747 5.86639 20.1099V17.3731C5.86639 17.0554 5.83043 17.3459 7.55957 12.0447ZM25.0828 19.9611V10.1545C25.0828 9.7494 24.7531 9.41993 24.3482 9.41993H14.3123C13.9073 9.41993 13.5777 9.7494 13.5777 10.1545C13.5777 12.8228 13.5777 18.0219 13.5777 20.6925H18.3494C18.5044 19.4842 19.5372 18.5466 20.7872 18.5466C22.0369 18.5466 23.0696 19.4842 23.2247 20.6925H24.3482C24.7531 20.6925 25.0828 20.3644 25.0828 19.9611ZM20.7872 22.8468C21.8017 22.8468 22.6271 22.0213 22.6271 21.0066C22.6271 19.9918 21.8017 19.1664 20.7872 19.1664C19.7723 19.1664 18.9469 19.9918 18.9469 21.0066C18.9469 22.0213 19.7723 22.8468 20.7872 22.8468ZM9.7228 22.8468C10.7374 22.8468 11.5628 22.0213 11.5628 21.0066C11.5628 19.9918 10.7374 19.1664 9.7228 19.1664C8.70793 19.1664 7.88252 19.9918 7.88252 21.0066C7.88252 22.0213 8.70793 22.8468 9.7228 22.8468ZM6.48628 20.1099C6.48628 20.4328 6.749 20.6957 7.07226 20.6957H7.28451C7.4381 19.4858 8.47172 18.5466 9.7228 18.5466C10.9736 18.5466 12.0072 19.4858 12.1608 20.6957H12.9578V11.8376H8.70853C8.45489 11.8376 8.22909 12.0009 8.14767 12.2412C6.39689 17.5833 6.48628 17.2212 6.48628 17.3731V20.1099Z" fill="#6A6A6A" stroke="#6A6A6A" stroke-width="0.3"/>
<path d="M8.88234 12.9793C8.92441 12.8522 9.04306 12.7664 9.17685 12.7664H11.7169C11.8882 12.7664 12.0269 12.9051 12.0269 13.0763V16.1227C12.0269 16.2939 11.8882 16.4327 11.7169 16.4327H8.17287C8.07329 16.4327 7.98006 16.385 7.92165 16.3043C7.86353 16.2238 7.84749 16.1202 7.87836 16.0257L8.88234 12.9793ZM11.407 15.8128V13.3862H9.40113L8.60146 15.8128H11.407Z" fill="#6A6A6A" stroke="#6A6A6A" stroke-width="0.3"/>
<path d="M15.104 17.3638C14.9327 17.3638 14.7941 17.225 14.7941 17.0539C14.7941 16.8827 14.9327 16.7439 15.104 16.7439H15.3146C15.466 14.7684 17.0449 13.1896 19.0204 13.0382V12.5912C19.0204 12.42 19.159 12.2812 19.3303 12.2812C19.5016 12.2812 19.6402 12.42 19.6402 12.5912V13.0382C21.6157 13.1896 23.1943 14.7684 23.3456 16.7439H23.5563C23.7276 16.7439 23.8662 16.8827 23.8662 17.0539C23.8662 17.225 23.7276 17.3638 23.5563 17.3638C20.4556 17.3638 18.1817 17.3638 15.104 17.3638ZM19.3303 13.6424C17.5536 13.6424 16.0898 15.0076 15.9327 16.7439H22.7275C22.5705 15.0076 21.1067 13.6424 19.3303 13.6424Z" fill="#6A6A6A" stroke="#6A6A6A" stroke-width="0.3"/>
</svg>
