<svg width="27" height="27" viewBox="0 0 27 27" fill="none" xmlns="http://www.w3.org/2000/svg">
<path d="M13.9805 24.9167V2H11.8971L8.2513 3.5625L5.1263 6.16667L3.5638 8.77083L2.52213 11.375L2.0013 14.5L3.04297 18.1458L5.1263 21.2708L8.2513 23.3542L10.3346 24.9167H13.9805Z" fill="#F5D1C5"/>
<path d="M13.54 1.00007C20.4024 1.02257 26.0398 6.66499 25.9998 13.4799C25.9978 15.126 25.6716 16.7556 25.0399 18.2756C24.4081 19.7957 23.4832 21.1764 22.3178 22.339C21.1525 23.5015 19.7695 24.4232 18.248 25.0513C16.7264 25.6794 15.0961 26.0017 13.45 25.9997C6.58256 26.0122 0.967641 20.3273 1.00014 13.3899C1.02919 10.0869 2.36444 6.92966 4.71411 4.60809C7.06379 2.28652 10.2369 0.989368 13.54 1.00007ZM13.5975 3.36503C12.2617 3.35214 10.9366 3.60425 9.69881 4.10676C8.46107 4.60927 7.33525 5.35222 6.38647 6.29262C5.4377 7.23303 4.68481 8.35222 4.17135 9.58547C3.65789 10.8187 3.39405 12.1415 3.39511 13.4774C3.33261 18.9998 7.91504 23.6097 13.4525 23.6222C14.788 23.6252 16.1108 23.3639 17.3448 22.8532C18.5788 22.3425 19.6995 21.5926 20.6424 20.6468C21.5852 19.7009 22.3315 18.5778 22.8382 17.3422C23.3449 16.1066 23.6021 14.7829 23.5948 13.4474C23.5623 7.90997 19.0624 3.37253 13.5975 3.36503Z" fill="#9E4122" stroke="white" stroke-width="0.5"/>
<path d="M12.9737 20.5846H12.0537C12.0379 20.5713 12.0202 20.5604 12.0012 20.5521C11.7278 20.4442 11.5039 20.2389 11.3728 19.9758C11.2418 19.7127 11.2127 19.4104 11.2912 19.1271C11.7087 17.4046 12.1387 15.6846 12.5562 13.9622C12.6143 13.7236 12.6561 13.4814 12.6812 13.2372C12.6897 13.207 12.6895 13.175 12.6806 13.1449C12.6718 13.1148 12.6546 13.0878 12.6312 13.0669C12.6077 13.0461 12.5789 13.0322 12.548 13.027C12.517 13.0217 12.4853 13.0253 12.4562 13.0372C12.3571 13.0588 12.2606 13.0915 12.1687 13.1347C11.9587 13.2222 11.7562 13.3247 11.5462 13.4072C11.4726 13.4491 11.3863 13.463 11.3032 13.4465C11.2201 13.43 11.1458 13.3841 11.0938 13.3172V12.9797C11.2363 12.7795 11.3979 12.5937 11.5762 12.4247C12.2062 11.9247 12.8537 11.4522 13.5037 10.9772C13.6429 10.8853 13.7922 10.8098 13.9487 10.7522C14.154 10.6628 14.382 10.6392 14.6012 10.6847C14.7842 10.7087 14.9597 10.7725 15.1155 10.8716C15.2712 10.9706 15.4034 11.1026 15.5027 11.2581C15.6021 11.4137 15.6662 11.5891 15.6905 11.772C15.7149 11.955 15.6989 12.1411 15.6437 12.3172C15.2354 13.9838 14.827 15.6422 14.4187 17.2921C14.3534 17.5622 14.3049 17.836 14.2737 18.1121C14.2659 18.1424 14.2671 18.1743 14.2772 18.2039C14.2873 18.2336 14.3059 18.2596 14.3307 18.2787C14.3554 18.2979 14.3852 18.3093 14.4164 18.3117C14.4476 18.3141 14.4788 18.3073 14.5062 18.2921C14.6612 18.2446 14.8062 18.1696 14.9562 18.1096C15.1062 18.0496 15.3237 17.9571 15.5112 17.8946C15.5643 17.8749 15.6224 17.8728 15.6768 17.8886C15.7313 17.9043 15.7792 17.9371 15.8137 17.9821C15.8524 18.0262 15.8761 18.0814 15.8815 18.1397C15.8869 18.1981 15.8737 18.2567 15.8437 18.3071C15.7982 18.4035 15.7402 18.4934 15.6712 18.5746C15.5164 18.745 15.3493 18.9037 15.1712 19.0496C14.4891 19.6299 13.7533 20.1439 12.9737 20.5846Z" fill="#9E4122" stroke="white" stroke-width="0.5"/>
<path d="M14.1624 9.90492C13.8157 9.90789 13.4759 9.80779 13.1861 9.61731C12.8964 9.42684 12.6698 9.15458 12.535 8.83509C12.4003 8.51559 12.3635 8.16327 12.4293 7.82283C12.4951 7.48238 12.6606 7.16916 12.9047 6.92292C13.1488 6.67668 13.4606 6.50852 13.8005 6.43977C14.1403 6.37102 14.493 6.40479 14.8136 6.53679C15.1343 6.66879 15.4085 6.89307 15.6014 7.18117C15.7944 7.46926 15.8974 7.80819 15.8974 8.15494C15.8991 8.38395 15.8554 8.61102 15.769 8.82311C15.6826 9.03519 15.5551 9.22809 15.3938 9.39072C15.2326 9.55336 15.0408 9.68251 14.8295 9.77075C14.6181 9.859 14.3915 9.90459 14.1624 9.90492Z" fill="#9E4122" stroke="white" stroke-width="0.5"/>
</svg>
