<svg width="33" height="33" viewBox="0 0 33 33" fill="none" xmlns="http://www.w3.org/2000/svg">
<ellipse cx="16.1333" cy="16.5" rx="16.1333" ry="16.5" fill="#F2F2F2"/>
<path d="M16.1331 23.4667C12.083 23.4667 8.7998 20.1835 8.7998 16.1334C8.7998 12.0833 12.083 8.80005 16.1331 8.80005C20.1832 8.80005 23.4665 12.0833 23.4665 16.1334C23.4665 20.1835 20.1832 23.4667 16.1331 23.4667ZM16.1331 22.1334C19.4468 22.1334 22.1331 19.4471 22.1331 16.1334C22.1331 12.8197 19.4468 10.1334 16.1331 10.1334C12.8194 10.1334 10.1331 12.8197 10.1331 16.1334C10.1331 19.4471 12.8194 22.1334 16.1331 22.1334ZM16.1331 16.388L18.4313 17.5371C18.7606 17.7018 18.8941 18.1022 18.7294 18.4315C18.5648 18.7608 18.1643 18.8943 17.835 18.7297L15.1683 17.3963C14.9425 17.2834 14.7998 17.0526 14.7998 16.8V12.8C14.7998 12.4319 15.0983 12.1334 15.4665 12.1334C15.8347 12.1334 16.1331 12.4319 16.1331 12.8V16.388Z" fill="#6A6A6A" stroke="white" stroke-width="0.3"/>
</svg>
